# xmcd
#
# Track frame offsets:
#	150
#	14447
#	33237
#	55122
#	73700
#	95762
#	112470
#	129565
#	147692
#	174465
#	193037
#	219367
#	237450
#	259220
#	279630
#	299042
#	319515
#
# Disc length: 4549 seconds
#
# Revision: 5
# Processed by: cddbd v1.5.2PL0 Copyright (c) Steve Scherf et al.
# Submitted via: audiograbber 1.83.01
#
DISCID=1811c311
DTITLE=Whispers - Greatest Hits
DYEAR=1997
DGENRE=Soul
TTITLE0=One For The Money (Part 1)
TTITLE1=Living Together (In Sin)
TTITLE2=(Let's Go) All The Way
TTITLE3=(Olivia) Lost And Turned Out
TTITLE4=And The Beat Goes On
TTITLE5=Lady
TTITLE6=It's A Love Thing
TTITLE7=This Kind Of Lovin'
TTITLE8=In The Raw
TTITLE9=Tonight
TTITLE10=Keep On Lovin' Me
TTITLE11=Contagious
TTITLE12=Rock Steady
TTITLE13=Just Gets Better With Time
TTITLE14=Innocent
TTITLE15=My Heart Your Heart
TTITLE16=Is It Good To You
EXTD=
EXTT0=
EXTT1=
EXTT2=
EXTT3=
EXTT4=
EXTT5=
EXTT6=
EXTT7=
EXTT8=
EXTT9=
EXTT10=
EXTT11=
EXTT12=
EXTT13=
EXTT14=
EXTT15=
EXTT16=
PLAYORDER=
